<svg width="28" height="28" viewBox="0 0 28 28" fill="none" xmlns="http://www.w3.org/2000/svg">
<rect width="28" height="28" fill="#E5E5E5"/>
<g id="Desktop" clip-path="url(#clip0_0_1)">
<rect width="1440" height="5953" transform="translate(-288 -4921)" fill="white"/>
<g id="Frame">
<rect width="1440" height="5953" transform="translate(-288 -4921)" fill="#F5F3F4"/>
<g id="Frame_2">
<g id="Frame_3">
<g id="Frame_4">
<g id="Frame_5">
<g id="Frame_6">
<path id="Rectangle" d="M-223 -219C-223 -230.046 -214.046 -239 -203 -239H399C410.046 -239 419 -230.046 419 -219V392C419 403.046 410.046 412 399 412H-203C-214.046 412 -223 403.046 -223 392V-219Z" fill="white"/>
<g id="Frame_7">
<g id="Frame_8">
<g id="Rectangle_2" filter="url(#filter0_d_0_1)">
<path d="M-33 3C-33 -3.62742 -27.6274 -9 -21 -9H217C223.627 -9 229 -3.62742 229 3V25C229 31.6274 223.627 37 217 37H-21C-27.6274 37 -33 31.6274 -33 25V3Z" fill="#FC6D26"/>
</g>
<g id="Frame_9" clip-path="url(#clip1_0_1)">
<path id="Vector" d="M13.6108 27.2141L8.59601 10.9541H18.6181L13.6108 27.2141Z" fill="white"/>
<path id="Vector_2" d="M25.6443 10.9541L27.1721 15.8941C27.3103 16.3431 27.1609 16.8381 26.796 17.1171L13.6117 27.2141L25.6443 10.9541Z" fill="white" fill-opacity="0.65"/>
<path id="Vector_3" d="M25.6443 10.9541H18.6191L21.6431 1.16113C21.7971 0.661133 22.4719 0.661133 22.6324 1.16113L25.6443 10.9541Z" fill="white"/>
<path id="Vector_4" d="M1.57271 10.9541L0.0513757 15.8941C-0.0867577 16.3431 0.0625757 16.8381 0.427509 17.1171L13.6127 27.2141L1.57271 10.9541Z" fill="white" fill-opacity="0.65"/>
<path id="Vector_5" d="M1.57266 10.9541H8.596L5.57946 1.16113C5.42453 0.661133 4.75066 0.661133 4.59013 1.16113L1.57266 10.9541Z" fill="white"/>
<path id="Vector_6" d="M13.6127 27.2141L8.59786 10.9541H1.57266L13.6127 27.2141Z" fill="white" fill-opacity="0.85"/>
<path id="Vector_7" d="M13.6117 27.2141L25.6443 10.9541H18.6191L13.6117 27.2141Z" fill="white" fill-opacity="0.85"/>
</g>
</g>
</g>
</g>
</g>
</g>
</g>
</g>
</g>
</g>
<defs>
<filter id="filter0_d_0_1" x="-34" y="-9" width="264" height="48" filterUnits="userSpaceOnUse" color-interpolation-filters="sRGB">
<feFlood flood-opacity="0" result="BackgroundImageFix"/>
<feColorMatrix in="SourceAlpha" type="matrix" values="0 0 0 0 0 0 0 0 0 0 0 0 0 0 0 0 0 0 127 0" result="hardAlpha"/>
<feOffset dy="1"/>
<feGaussianBlur stdDeviation="0.5"/>
<feColorMatrix type="matrix" values="0 0 0 0 0 0 0 0 0 0 0 0 0 0 0 0 0 0 0.1 0"/>
<feBlend mode="normal" in2="BackgroundImageFix" result="effect1_dropShadow_0_1"/>
<feBlend mode="normal" in="SourceGraphic" in2="effect1_dropShadow_0_1" result="shape"/>
</filter>
<clipPath id="clip0_0_1">
<rect width="1440" height="5953" fill="white" transform="translate(-288 -4921)"/>
</clipPath>
<clipPath id="clip1_0_1">
<rect width="28" height="28" fill="white"/>
</clipPath>
</defs>
</svg>
